<svg data-v-fde0c5aa="" xmlns="http://www.w3.org/2000/svg" viewBox="0 0 300 300" class="iconAbove"><!----><defs data-v-fde0c5aa=""><!----></defs><rect data-v-fde0c5aa="" fill="#FFF" x="0" y="0" width="300px" height="300px" class="logo-background-square"></rect><defs data-v-fde0c5aa=""><!----></defs><g data-v-fde0c5aa="" id="971b44b6-fc79-4e9b-885b-6071a563ef30" fill="#000000" transform="matrix(2.164502115010135,0,0,2.164502115010135,17.22943735471393,177.53895970680057)"><path d="M1.28 12.88L4.15 12.88C7.04 12.88 9.40 10.54 9.40 7.63C9.40 4.72 7.04 2.38 4.15 2.38L1.28 2.38ZM2.38 11.76L2.38 3.50L4.13 3.50C6.46 3.50 8.28 5.27 8.28 7.63C8.28 9.99 6.46 11.76 4.13 11.76ZM14.95 5.74C13.95 5.74 13.14 6.18 12.62 6.88L12.62 5.88L11.53 5.88L11.53 12.88L12.62 12.88L12.62 9.08C12.62 7.81 13.67 6.83 14.95 6.83C15.16 6.83 15.33 6.84 15.49 6.90L15.49 5.79C15.33 5.76 15.16 5.74 14.95 5.74ZM23.64 9.31C23.59 7.30 22.00 5.74 20.00 5.74C17.99 5.74 16.36 7.37 16.36 9.38C16.36 11.39 17.99 13.02 20.00 13.02C21.67 13.02 23.05 11.92 23.50 10.41L22.35 10.41C21.96 11.32 21.05 11.94 20.00 11.94C18.62 11.94 17.52 10.89 17.45 9.54L23.63 9.54ZM20.00 6.83C21.12 6.83 22.07 7.54 22.40 8.56L17.59 8.56C17.94 7.54 18.88 6.83 20.00 6.83ZM33.14 11.97C32.76 11.97 32.43 11.71 32.43 11.06L32.43 5.88L31.34 5.88L31.34 6.79C30.70 6.14 29.79 5.74 28.79 5.74C26.77 5.74 25.15 7.37 25.15 9.38C25.15 11.39 26.77 13.02 28.79 13.02C29.84 13.02 30.78 12.53 31.45 11.81C31.68 12.53 32.23 13.02 33.06 13.02C33.25 13.02 33.44 12.97 33.58 12.88L33.58 11.97ZM28.79 11.94C27.37 11.94 26.23 10.80 26.23 9.38C26.23 7.96 27.37 6.83 28.79 6.83C30.19 6.83 31.34 7.96 31.34 9.38C31.34 10.80 30.19 11.94 28.79 11.94ZM41.77 5.74C40.93 5.74 40.20 6.14 39.73 6.79C39.25 6.14 38.52 5.74 37.78 5.74C37.15 5.74 36.58 6.05 36.16 6.53L36.16 5.88L35.07 5.88L35.07 12.88L36.16 12.88L36.16 8.40C36.16 7.53 36.82 6.83 37.68 6.83C38.50 6.83 39.18 7.53 39.18 8.40L39.18 12.88L40.27 12.88L40.27 8.40C40.27 7.53 40.95 6.83 41.77 6.83C42.61 6.83 43.30 7.53 43.30 8.40L43.30 12.88L44.38 12.88L44.38 8.40C44.38 6.93 43.23 5.74 41.77 5.74ZM47.51 4.57C47.92 4.57 48.27 4.23 48.27 3.83C48.27 3.39 47.92 3.08 47.51 3.08C47.09 3.08 46.74 3.39 46.74 3.83C46.74 4.23 47.09 4.57 47.51 4.57ZM46.97 12.88L48.06 12.88L48.06 5.88L46.97 5.88ZM53.52 5.74C52.87 5.74 52.27 6.00 51.82 6.44L51.82 5.88L50.73 5.88L50.73 12.88L51.82 12.88L51.82 8.42C51.82 7.53 52.54 6.83 53.43 6.83C54.32 6.83 55.02 7.53 55.02 8.42L55.02 12.88L56.11 12.88L56.11 8.42C56.11 6.93 54.86 5.74 53.52 5.74ZM64.26 5.88L64.26 6.75C63.61 6.13 62.70 5.74 61.72 5.74C59.71 5.74 58.08 7.35 58.08 9.38C58.08 11.39 59.71 13.02 61.72 13.02C62.72 13.02 63.61 12.62 64.28 11.97L64.28 13.49C64.28 14.89 63.12 16.05 61.72 16.05C60.59 16.05 59.62 15.30 59.29 14.28L58.29 14.72C58.80 16.14 60.15 17.13 61.72 17.13C63.74 17.13 65.36 15.51 65.36 13.49L65.36 5.88ZM61.72 11.94C60.31 11.94 59.17 10.78 59.17 9.38C59.17 7.96 60.31 6.83 61.72 6.83C63.12 6.83 64.28 7.96 64.28 9.38C64.28 10.78 63.12 11.94 61.72 11.94ZM74.78 13.02C76.56 13.02 78.02 11.95 78.02 10.12C78.02 6.54 72.91 7.42 72.91 4.92C72.91 3.87 73.76 3.36 74.74 3.36C75.55 3.36 76.21 3.69 76.63 4.29L77.51 3.55C76.93 2.82 75.92 2.24 74.71 2.24C73.10 2.24 71.79 3.29 71.79 5.00C71.79 8.38 76.90 7.54 76.90 10.15C76.90 11.27 75.97 11.90 74.80 11.90C73.61 11.90 72.75 11.25 72.38 10.29L71.37 10.89C71.91 12.18 73.22 13.02 74.78 13.02ZM83.44 5.74C82.44 5.74 81.55 6.14 80.89 6.79L80.89 5.88L79.80 5.88L79.80 17.08L80.89 17.08L80.89 11.97C81.55 12.62 82.44 13.02 83.44 13.02C85.45 13.02 87.08 11.39 87.08 9.38C87.08 7.37 85.45 5.74 83.44 5.74ZM83.44 11.94C82.02 11.94 80.89 10.80 80.89 9.38C80.89 7.96 82.02 6.83 83.44 6.83C84.86 6.83 86.00 7.96 86.00 9.38C86.00 10.80 84.86 11.94 83.44 11.94ZM96.65 11.97C96.27 11.97 95.94 11.71 95.94 11.06L95.94 5.88L94.85 5.88L94.85 6.79C94.20 6.14 93.29 5.74 92.30 5.74C90.28 5.74 88.66 7.37 88.66 9.38C88.66 11.39 90.28 13.02 92.30 13.02C93.35 13.02 94.29 12.53 94.96 11.81C95.18 12.53 95.74 13.02 96.57 13.02C96.76 13.02 96.95 12.97 97.09 12.88L97.09 11.97ZM92.30 11.94C90.88 11.94 89.74 10.80 89.74 9.38C89.74 7.96 90.88 6.83 92.30 6.83C93.70 6.83 94.85 7.96 94.85 9.38C94.85 10.80 93.70 11.94 92.30 11.94ZM101.36 5.74C100.71 5.74 100.12 6.00 99.66 6.44L99.66 5.88L98.58 5.88L98.58 12.88L99.66 12.88L99.66 8.42C99.66 7.53 100.38 6.83 101.27 6.83C102.17 6.83 102.87 7.53 102.87 8.42L102.87 12.88L103.95 12.88L103.95 8.42C103.95 6.93 102.71 5.74 101.36 5.74ZM107.10 4.57C107.50 4.57 107.85 4.23 107.85 3.83C107.85 3.39 107.50 3.08 107.10 3.08C106.68 3.08 106.33 3.39 106.33 3.83C106.33 4.23 106.68 4.57 107.10 4.57ZM106.56 12.88L107.64 12.88L107.64 5.88L106.56 5.88ZM112.05 13.02C113.28 13.02 114.29 12.20 114.29 10.99C114.29 9.73 113.24 9.24 112.33 8.87C111.48 8.51 111.04 8.31 111.04 7.70C111.04 7.11 111.44 6.83 112.02 6.83C112.47 6.83 112.88 7.02 113.07 7.39L114.01 6.90C113.75 6.27 112.86 5.74 111.97 5.74C110.93 5.74 109.94 6.46 109.94 7.74C109.94 8.84 110.67 9.40 111.91 9.87C112.75 10.20 113.21 10.43 113.21 10.99C113.21 11.60 112.68 11.95 112.05 11.95C111.41 11.95 110.78 11.59 110.67 11.08L109.62 11.50C109.88 12.34 110.93 13.02 112.05 13.02ZM118.76 5.74C118.18 5.74 117.64 5.93 117.20 6.25L117.20 0L116.11 0L116.11 12.88L117.20 12.88L117.20 8.40C117.20 7.51 117.90 6.83 118.76 6.83C119.61 6.83 120.33 7.51 120.33 8.40L120.33 12.88L121.40 12.88L121.40 8.40C121.40 6.91 120.23 5.74 118.76 5.74Z"></path></g><defs data-v-fde0c5aa=""><!----></defs><g data-v-fde0c5aa="" id="075e28ca-48e9-466a-af48-59b1c94e5615" stroke="none" fill="#ff9301" transform="matrix(1.4824647372671336,0,0,1.4824647372671336,99.58078722508961,85.38312421886434)"><g><path d="M60 20.31V8c0-4.414-3.581-8-7.999-8H8A7.994 7.994 0 0 0 0 7.999V34A8 8 0 0 0 8 42H40A14.934 14.934 0 0 1 37 33c0-8.284 6.716-15 15-15 2.941 0 5.685.846 8 2.31zM37.79 21L25 29V13l12.79 8z"></path><path d="M60.804 39.596l6.649 7.03a2 2 0 1 1-2.906 2.748l-6.684-7.065A10.949 10.949 0 0 1 52 44c-6.075 0-11-4.925-11-11s4.925-11 11-11 11 4.925 11 11c0 2.475-.817 4.759-2.196 6.596zM52 40a7 7 0 1 0 0-14 7 7 0 0 0 0 14z"></path></g></g><!----></svg>